Coordinates
version=1
nRows=6
nColumns=46
inDegrees=yes

Units are S.I. units (second, meters, Newtons, ...)
Angles are in degrees.

endheader
time	pelvis_tilt	pelvis_list	pelvis_rotation	pelvis_tx	pelvis_ty	pelvis_tz	bb_angle	bb_tx	bb_ty	bb_tz	hip_flexion_r	hip_adduction_r	hip_rotation_r	knee_angle_r	knee_angle_r_beta	ankle_angle_r	subtalar_angle_r	mtp_angle_r	crank_angle_r	hip_flexion_l	hip_adduction_l	hip_rotation_l	knee_angle_l	knee_angle_l_beta	ankle_angle_l	subtalar_angle_l	mtp_angle_l	crank_angle_l	lumbar_extension	lumbar_bending	lumbar_rotation	arm_flex_r	arm_add_r	arm_rot_r	elbow_flex_r	pro_sup_r	wrist_flex_r	wrist_dev_r	arm_flex_l	arm_add_l	arm_rot_l	elbow_flex_l	pro_sup_l	wrist_flex_l	wrist_dev_l
      5.00500000	    -23.55626703	      4.55254474	     -9.10138047	      0.45693513	      1.16487532	     -0.19986130	      0.00000000	      0.50000000	      0.00000000	      0.25000000	     55.23147068	     -0.55635168	      6.93313880	     60.54390734	      1.05669053	     11.94153050	     -6.16694653	      0.00000000	      0.00000000	     41.42310107	     -3.67699823	     -0.05960176	     68.63376486	      1.19788517	    -30.30745175	     -7.72190081	      0.00000000	      0.00000000	    -56.68134033	     -7.48016145	     10.61227247	     50.67439725	    -55.05395872	     52.14410652	     95.01541027	     58.82407831	      0.00000000	      0.00000000	     49.13155613	    -15.47876688	     31.65370706	     69.84064231	     51.73674917	      0.00000000	      0.00000000
      5.01000000	    -23.52980219	      5.15905760	     -8.58905441	      0.45627722	      1.16274952	     -0.20008115	      0.00000000	      0.50000000	      0.00000000	      0.25000000	     54.11204070	     -1.33032452	      7.32441463	     58.33549130	      1.01814639	     10.92271713	     -6.56167926	      0.00000000	      0.00000000	     42.69375647	     -2.82475830	      0.11415678	     71.30561452	      1.24451775	    -28.71919042	     -7.99678528	      0.00000000	      0.00000000	    -56.48314352	     -7.82816501	     10.14439932	     47.87799532	    -54.98072166	     49.04801206	     95.58629107	     58.64487988	      0.00000000	      0.00000000	     49.72343853	    -15.73792428	     32.80259673	     69.72797534	     52.04826169	      0.00000000	      0.00000000
      5.01500000	    -23.57126767	      5.60761684	     -7.99142273	      0.45551735	      1.16047978	     -0.20021329	      0.00000000	      0.50000000	      0.00000000	      0.25000000	     52.93866842	     -1.97098655	      7.60911732	     56.04652104	      0.97819633	      9.50553453	     -6.97536714	      0.00000000	      0.00000000	     44.07211671	     -2.05279809	      0.48936663	     74.01964385	      1.29188650	    -26.96435776	     -8.11756778	      0.00000000	      0.00000000	    -56.18777033	     -7.90124505	      9.44505398	     47.34582241	    -54.88948042	     48.81492882	     95.63393910	     58.64063292	      0.00000000	      0.00000000	     49.82722822	    -16.01077807	     32.99887974	     69.75602995	     52.10088086	      0.00000000	      0.00000000
      5.02000000	    -23.81483161	      6.03750513	     -7.36322189	      0.45454984	      1.15783620	     -0.20008465	      0.00000000	      0.50000000	      0.00000000	      0.25000000	     51.91105426	     -2.50046189	      7.95460180	     53.74604277	      0.93804541	      8.10793893	     -7.91041043	      0.00000000	      0.00000000	     45.69987867	     -1.29875704	      0.96434442	     76.74181919	      1.33939742	    -25.08209642	     -7.98186092	      0.00000000	      0.00000000	    -55.65919147	     -8.04268081	      8.61380161	     46.45617707	    -54.35352037	     48.10247787	     95.48141397	     58.55436531	      0.00000000	      0.00000000	     49.83221293	    -16.69823690	     33.42715111	     70.25161203	     52.26586533	      0.00000000	      0.00000000
      5.02500000	    -23.98050090	      6.47563013	     -6.55740919	      0.45378444	      1.15535524	     -0.20000429	      0.00000000	      0.50000000	      0.00000000	      0.25000000	     50.71428925	     -3.17953070	      8.20254446	     51.47240963	      0.89836302	      6.87432835	     -8.94094223	      0.00000000	      0.00000000	     47.24653194	     -0.40740595	      1.60496954	     79.43035600	      1.38632124	    -22.92061114	     -7.42285318	      0.00000000	      0.00000000	    -55.27348815	     -8.09054082	      7.58931061	     45.57487676	    -53.71452627	     47.31918335	     95.37351701	     58.46500636	      0.00000000	      0.00000000	     49.80559059	    -17.43865055	     33.73849882	     70.84141459	     52.42284775	      0.00000000	      0.00000000
      5.03000000	    -24.21622172	      7.02793530	     -5.78377949	      0.45321475	      1.15284832	     -0.19967688	      0.00000000	      0.50000000	      0.00000000	      0.25000000	     49.54084730	     -3.87741866	      8.60244254	     49.20034910	      0.85870808	      5.57689130	     -9.96635163	      0.00000000	      0.00000000	     48.77655115	      0.61731214	      2.03580815	     81.94243423	      1.43016527	    -20.87914682	     -7.49006838	      0.00000000	      0.00000000	    -54.89249029	     -8.32918654	      6.29087222	     43.82441485	    -52.28655282	     45.21420985	     95.04604204	     58.21913135	      0.00000000	      0.00000000	     49.51297599	    -18.77863705	     34.09396230	     72.55589736	     52.79542810	      0.00000000	      0.00000000
